<mxfile host="65bd71144e">
    <diagram id="2mJ6WSfupJ5hoKNBxHqJ" name="Page-1">
        <mxGraphModel dx="590" dy="644" grid="1" gridSize="10" guides="1" tooltips="1" connect="1" arrows="1" fold="1" page="1" pageScale="1" pageWidth="850" pageHeight="1100" math="0" shadow="0">
            <root>
                <mxCell id="0"/>
                <mxCell id="1" parent="0"/>
                <mxCell id="49" value="" style="rounded=0;whiteSpace=wrap;html=1;strokeColor=#FFFFFF;fontSize=16;fillColor=#efebf4;" parent="1" vertex="1">
                    <mxGeometry x="18" y="20" width="842" height="820" as="geometry"/>
                </mxCell>
                <mxCell id="2" value="&lt;font style=&quot;font-size: 16px;&quot;&gt;Application&lt;br&gt;&lt;br&gt;&lt;br&gt;&lt;br&gt;&lt;/font&gt;" style="rounded=0;whiteSpace=wrap;html=1;align=center;fillColor=#1ba1e2;fontColor=#ffffff;strokeColor=#006EAF;" parent="1" vertex="1">
                    <mxGeometry x="40" y="90" width="660" height="81" as="geometry"/>
                </mxCell>
                <mxCell id="3" value="Planning" style="rounded=0;whiteSpace=wrap;html=1;fillColor=#1ba1e2;fontColor=#ffffff;strokeColor=#FFFFFF;" parent="1" vertex="1">
                    <mxGeometry x="76" y="131" width="100" height="30" as="geometry"/>
                </mxCell>
                <mxCell id="4" value="Control" style="rounded=0;whiteSpace=wrap;html=1;fillColor=#1ba1e2;fontColor=#ffffff;strokeColor=#FFFFFF;" parent="1" vertex="1">
                    <mxGeometry x="236" y="131" width="100" height="30" as="geometry"/>
                </mxCell>
                <mxCell id="5" value="Location" style="rounded=0;whiteSpace=wrap;html=1;fillColor=#1ba1e2;fontColor=#ffffff;strokeColor=#FFFFFF;" parent="1" vertex="1">
                    <mxGeometry x="396" y="131" width="100" height="30" as="geometry"/>
                </mxCell>
                <mxCell id="6" value="Preception" style="rounded=0;whiteSpace=wrap;html=1;strokeColor=#FFFFFF;fillColor=#1ba1e2;fontColor=#ffffff;" parent="1" vertex="1">
                    <mxGeometry x="546" y="131" width="100" height="30" as="geometry"/>
                </mxCell>
                <mxCell id="9" value="&lt;font style=&quot;font-size: 14px;&quot;&gt;Routing Map&lt;br&gt;&lt;br&gt;&lt;br&gt;&lt;br&gt;&lt;/font&gt;" style="rounded=0;whiteSpace=wrap;html=1;align=center;fillColor=#808080;fontColor=#ffffff;strokeColor=#006EAF;" parent="1" vertex="1">
                    <mxGeometry x="265.5" y="210" width="434.5" height="79" as="geometry"/>
                </mxCell>
                <mxCell id="10" value="Route Plan&lt;br&gt;&lt;br&gt;&lt;br&gt;&lt;br&gt;" style="rounded=0;whiteSpace=wrap;html=1;strokeColor=#FFFFFF;fontSize=14;fillColor=#808080;" parent="1" vertex="1">
                    <mxGeometry x="40" y="210" width="220" height="80" as="geometry"/>
                </mxCell>
                <mxCell id="11" value="&lt;font style=&quot;font-size: 14px;&quot;&gt;MapImport&lt;br&gt;&lt;br&gt;&lt;br&gt;&lt;br&gt;&lt;/font&gt;" style="rounded=0;whiteSpace=wrap;html=1;align=center;fillColor=#808080;fontColor=#ffffff;strokeColor=#006EAF;" parent="1" vertex="1">
                    <mxGeometry x="380" y="414" width="322" height="79" as="geometry"/>
                </mxCell>
                <mxCell id="12" value="&lt;span style=&quot;color: rgb(255, 255, 255);&quot;&gt;DB Interface&lt;br&gt;&lt;br&gt;&lt;br&gt;&lt;br&gt;&lt;/span&gt;" style="rounded=0;whiteSpace=wrap;html=1;strokeColor=#FFFFFF;fontSize=14;fillColor=#808080;" parent="1" vertex="1">
                    <mxGeometry x="40" y="414" width="340" height="79" as="geometry"/>
                </mxCell>
                <mxCell id="13" value="&lt;font style=&quot;font-size: 14px;&quot;&gt;MapEngine&lt;br&gt;&lt;br&gt;&lt;br&gt;&lt;br&gt;&lt;/font&gt;" style="rounded=0;whiteSpace=wrap;html=1;align=center;fillColor=#808080;fontColor=#ffffff;strokeColor=#006EAF;" parent="1" vertex="1">
                    <mxGeometry x="40" y="310" width="660" height="79" as="geometry"/>
                </mxCell>
                <mxCell id="14" value="&lt;font style=&quot;font-size: 12px;&quot;&gt;Route&lt;br&gt;Config&lt;/font&gt;" style="rounded=0;whiteSpace=wrap;html=1;strokeColor=#FFFFFF;fontSize=16;fillColor=#808080;" parent="1" vertex="1">
                    <mxGeometry x="270" y="240" width="90" height="41" as="geometry"/>
                </mxCell>
                <mxCell id="15" value="&lt;span style=&quot;font-size: 12px;&quot;&gt;Location&lt;br&gt;&lt;/span&gt;&lt;font style=&quot;font-size: 12px;&quot;&gt;Update&lt;/font&gt;" style="rounded=0;whiteSpace=wrap;html=1;strokeColor=#FFFFFF;fontSize=16;fillColor=#808080;" parent="1" vertex="1">
                    <mxGeometry x="380" y="240" width="90" height="41" as="geometry"/>
                </mxCell>
                <mxCell id="16" value="&lt;span style=&quot;font-size: 12px;&quot;&gt;Async&lt;br&gt;&lt;/span&gt;&lt;font style=&quot;font-size: 12px;&quot;&gt;Loader&lt;/font&gt;" style="rounded=0;whiteSpace=wrap;html=1;strokeColor=#FFFFFF;fontSize=16;fillColor=#808080;" parent="1" vertex="1">
                    <mxGeometry x="490" y="240" width="90" height="41" as="geometry"/>
                </mxCell>
                <mxCell id="17" value="&lt;font style=&quot;font-size: 12px;&quot;&gt;map&lt;br&gt;Cache&lt;/font&gt;" style="rounded=0;whiteSpace=wrap;html=1;strokeColor=#FFFFFF;fontSize=16;fillColor=#808080;" parent="1" vertex="1">
                    <mxGeometry x="598" y="240" width="90" height="41" as="geometry"/>
                </mxCell>
                <mxCell id="18" value="&lt;span style=&quot;font-size: 12px;&quot;&gt;A Star&lt;/span&gt;" style="rounded=0;whiteSpace=wrap;html=1;strokeColor=#FFFFFF;fontSize=16;fillColor=#808080;" parent="1" vertex="1">
                    <mxGeometry x="50" y="240" width="88" height="41" as="geometry"/>
                </mxCell>
                <mxCell id="19" value="&lt;span style=&quot;font-size: 12px;&quot;&gt;Planner&lt;/span&gt;" style="rounded=0;whiteSpace=wrap;html=1;strokeColor=#FFFFFF;fontSize=16;fillColor=#808080;" parent="1" vertex="1">
                    <mxGeometry x="161" y="240" width="88" height="41" as="geometry"/>
                </mxCell>
                <mxCell id="20" value="&lt;span style=&quot;font-size: 12px;&quot;&gt;Remote Access&lt;/span&gt;" style="rounded=0;whiteSpace=wrap;html=1;strokeColor=#FFFFFF;fontSize=16;fillColor=#808080;" parent="1" vertex="1">
                    <mxGeometry x="48" y="340" width="212" height="41" as="geometry"/>
                </mxCell>
                <mxCell id="21" value="&lt;span style=&quot;font-size: 12px;&quot;&gt;Local Access&lt;/span&gt;" style="rounded=0;whiteSpace=wrap;html=1;strokeColor=#FFFFFF;fontSize=16;fillColor=#808080;" parent="1" vertex="1">
                    <mxGeometry x="270" y="340" width="200" height="41" as="geometry"/>
                </mxCell>
                <mxCell id="22" value="&lt;span style=&quot;font-size: 12px;&quot;&gt;Cache Acess&lt;/span&gt;" style="rounded=0;whiteSpace=wrap;html=1;strokeColor=#FFFFFF;fontSize=16;fillColor=#808080;" parent="1" vertex="1">
                    <mxGeometry x="490" y="340" width="200" height="41" as="geometry"/>
                </mxCell>
                <mxCell id="23" value="&lt;font style=&quot;font-size: 14px;&quot;&gt;Core System&lt;br&gt;&lt;br&gt;&lt;br&gt;&lt;br&gt;&lt;/font&gt;" style="rounded=0;whiteSpace=wrap;html=1;align=center;fillColor=#808080;fontColor=#ffffff;strokeColor=#006EAF;" parent="1" vertex="1">
                    <mxGeometry x="38" y="620.5" width="662" height="79" as="geometry"/>
                </mxCell>
                <mxCell id="24" value="&lt;font style=&quot;font-size: 14px;&quot;&gt;Datamodel&lt;br&gt;&lt;br&gt;&lt;br&gt;&lt;br&gt;&lt;/font&gt;" style="rounded=0;whiteSpace=wrap;html=1;align=center;fillColor=#808080;fontColor=#ffffff;strokeColor=#006EAF;" parent="1" vertex="1">
                    <mxGeometry x="38" y="521.5" width="662" height="79" as="geometry"/>
                </mxCell>
                <mxCell id="25" value="" style="shape=curlyBracket;whiteSpace=wrap;html=1;rounded=1;flipH=1;labelPosition=right;verticalLabelPosition=middle;align=left;verticalAlign=middle;strokeColor=#1A1A1A;fontSize=12;fillColor=#808080;strokeWidth=3;" parent="1" vertex="1">
                    <mxGeometry x="730" y="210" width="20" height="80" as="geometry"/>
                </mxCell>
                <mxCell id="27" value="" style="shape=curlyBracket;whiteSpace=wrap;html=1;rounded=1;flipH=1;labelPosition=right;verticalLabelPosition=middle;align=left;verticalAlign=middle;strokeColor=#1A1A1A;fontSize=12;fillColor=#000000;strokeWidth=3;" parent="1" vertex="1">
                    <mxGeometry x="730" y="310" width="20" height="190" as="geometry"/>
                </mxCell>
                <mxCell id="31" value="&lt;font color=&quot;#000000&quot; style=&quot;font-size: 17px;&quot;&gt;&lt;b&gt;业务逻辑层&lt;/b&gt;&lt;/font&gt;" style="rounded=0;whiteSpace=wrap;html=1;strokeColor=none;fontSize=12;fillColor=none;strokeWidth=3;" parent="1" vertex="1">
                    <mxGeometry x="740" y="220" width="120" height="60" as="geometry"/>
                </mxCell>
                <mxCell id="32" value="&lt;font color=&quot;#000000&quot; style=&quot;font-size: 17px;&quot;&gt;&lt;b&gt;数据接入层&lt;/b&gt;&lt;/font&gt;" style="rounded=0;whiteSpace=wrap;html=1;strokeColor=none;fontSize=12;fillColor=none;strokeWidth=3;" parent="1" vertex="1">
                    <mxGeometry x="740" y="375" width="120" height="60" as="geometry"/>
                </mxCell>
                <mxCell id="33" value="&lt;font color=&quot;#1a1a1a&quot; style=&quot;font-size: 17px;&quot;&gt;&lt;b&gt;数据模型层&lt;/b&gt;&lt;/font&gt;" style="rounded=0;whiteSpace=wrap;html=1;strokeColor=none;fontSize=12;fillColor=none;strokeWidth=3;" parent="1" vertex="1">
                    <mxGeometry x="740" y="530" width="120" height="60" as="geometry"/>
                </mxCell>
                <mxCell id="34" value="&lt;font color=&quot;#1a1a1a&quot; style=&quot;font-size: 17px;&quot;&gt;&lt;b&gt;核心系统层&lt;/b&gt;&lt;/font&gt;" style="rounded=0;whiteSpace=wrap;html=1;strokeColor=none;fontSize=12;fillColor=none;strokeWidth=3;" parent="1" vertex="1">
                    <mxGeometry x="740" y="615" width="120" height="90" as="geometry"/>
                </mxCell>
                <mxCell id="35" value="&lt;font style=&quot;font-size: 16px;&quot;&gt;&lt;br&gt;Third Party&lt;br&gt;&lt;br&gt;&lt;br&gt;&lt;br&gt;&lt;br&gt;&lt;/font&gt;" style="rounded=0;whiteSpace=wrap;html=1;align=center;fillColor=#647687;fontColor=#ffffff;strokeColor=#314354;movable=1;resizable=1;rotatable=1;deletable=1;editable=1;connectable=1;" parent="1" vertex="1">
                    <mxGeometry x="40" y="730" width="662" height="79" as="geometry"/>
                </mxCell>
                <mxCell id="36" value="&lt;span style=&quot;font-size: 12px;&quot;&gt;Sqlite&lt;/span&gt;" style="rounded=0;whiteSpace=wrap;html=1;strokeColor=#314354;fontSize=16;fillColor=#647687;fontColor=#ffffff;movable=0;resizable=0;rotatable=0;deletable=0;editable=0;connectable=0;" parent="1" vertex="1">
                    <mxGeometry x="50" y="760" width="88" height="41" as="geometry"/>
                </mxCell>
                <mxCell id="37" value="&lt;span style=&quot;font-size: 12px;&quot;&gt;Curl&lt;/span&gt;" style="rounded=0;whiteSpace=wrap;html=1;strokeColor=#314354;fontSize=16;fillColor=#647687;fontColor=#ffffff;movable=0;resizable=0;rotatable=0;deletable=0;editable=0;connectable=0;" parent="1" vertex="1">
                    <mxGeometry x="161" y="760" width="88" height="41" as="geometry"/>
                </mxCell>
                <mxCell id="39" value="&lt;span style=&quot;font-size: 12px;&quot;&gt;Json&lt;/span&gt;" style="rounded=0;whiteSpace=wrap;html=1;strokeColor=#314354;fontSize=16;fillColor=#647687;fontColor=#ffffff;movable=0;resizable=0;rotatable=0;deletable=0;editable=0;connectable=0;" parent="1" vertex="1">
                    <mxGeometry x="272" y="760" width="88" height="41" as="geometry"/>
                </mxCell>
                <mxCell id="40" value="&lt;span style=&quot;font-size: 12px;&quot;&gt;Protobuf&lt;/span&gt;" style="rounded=0;whiteSpace=wrap;html=1;strokeColor=#314354;fontSize=16;fillColor=#647687;fontColor=#ffffff;movable=0;resizable=0;rotatable=0;deletable=0;editable=0;connectable=0;" parent="1" vertex="1">
                    <mxGeometry x="380" y="760" width="88" height="41" as="geometry"/>
                </mxCell>
                <mxCell id="41" value="&lt;span style=&quot;font-size: 12px;&quot;&gt;XML&lt;/span&gt;" style="rounded=0;whiteSpace=wrap;html=1;strokeColor=#314354;fontSize=16;fillColor=#647687;fontColor=#ffffff;movable=0;resizable=0;rotatable=0;deletable=0;editable=0;connectable=0;" parent="1" vertex="1">
                    <mxGeometry x="490" y="760" width="88" height="41" as="geometry"/>
                </mxCell>
                <mxCell id="42" value="&lt;span style=&quot;font-size: 12px;&quot;&gt;Proj&lt;/span&gt;" style="rounded=0;whiteSpace=wrap;html=1;strokeColor=#314354;fontSize=16;fillColor=#647687;fontColor=#ffffff;movable=0;resizable=0;rotatable=0;deletable=0;editable=0;connectable=0;" parent="1" vertex="1">
                    <mxGeometry x="598" y="760" width="88" height="41" as="geometry"/>
                </mxCell>
                <mxCell id="43" value="&lt;span style=&quot;font-size: 12px;&quot;&gt;Curve&lt;/span&gt;" style="rounded=0;whiteSpace=wrap;html=1;strokeColor=#FFFFFF;fontSize=16;fillColor=#808080;" parent="1" vertex="1">
                    <mxGeometry x="50" y="551" width="88" height="41" as="geometry"/>
                </mxCell>
                <mxCell id="44" value="&lt;span style=&quot;font-size: 12px;&quot;&gt;Road&lt;/span&gt;" style="rounded=0;whiteSpace=wrap;html=1;strokeColor=#FFFFFF;fontSize=16;fillColor=#808080;" parent="1" vertex="1">
                    <mxGeometry x="161" y="551" width="88" height="41" as="geometry"/>
                </mxCell>
                <mxCell id="45" value="&lt;span style=&quot;font-size: 12px;&quot;&gt;Link&lt;/span&gt;" style="rounded=0;whiteSpace=wrap;html=1;strokeColor=#FFFFFF;fontSize=16;fillColor=#808080;" parent="1" vertex="1">
                    <mxGeometry x="272" y="551" width="88" height="41" as="geometry"/>
                </mxCell>
                <mxCell id="46" value="&lt;span style=&quot;font-size: 12px;&quot;&gt;Object&lt;/span&gt;" style="rounded=0;whiteSpace=wrap;html=1;strokeColor=#FFFFFF;fontSize=16;fillColor=#808080;" parent="1" vertex="1">
                    <mxGeometry x="382" y="551" width="88" height="41" as="geometry"/>
                </mxCell>
                <mxCell id="47" value="&lt;span style=&quot;font-size: 12px;&quot;&gt;Map&lt;/span&gt;" style="rounded=0;whiteSpace=wrap;html=1;strokeColor=#FFFFFF;fontSize=16;fillColor=#808080;" parent="1" vertex="1">
                    <mxGeometry x="492" y="551" width="88" height="41" as="geometry"/>
                </mxCell>
                <mxCell id="48" value="&lt;span style=&quot;font-size: 12px;&quot;&gt;Route&lt;/span&gt;" style="rounded=0;whiteSpace=wrap;html=1;strokeColor=#FFFFFF;fontSize=16;fillColor=#808080;" parent="1" vertex="1">
                    <mxGeometry x="598" y="551" width="88" height="41" as="geometry"/>
                </mxCell>
                <mxCell id="50" value="" style="shape=curlyBracket;whiteSpace=wrap;html=1;rounded=1;flipH=1;labelPosition=right;verticalLabelPosition=middle;align=left;verticalAlign=middle;strokeColor=#1A1A1A;fontSize=12;fillColor=#808080;strokeWidth=3;size=0.5;" parent="1" vertex="1">
                    <mxGeometry x="730" y="519.5" width="20" height="80" as="geometry"/>
                </mxCell>
                <mxCell id="53" value="" style="shape=curlyBracket;whiteSpace=wrap;html=1;rounded=1;flipH=1;labelPosition=right;verticalLabelPosition=middle;align=left;verticalAlign=middle;strokeColor=#1A1A1A;fontSize=12;fillColor=#808080;strokeWidth=3;" parent="1" vertex="1">
                    <mxGeometry x="730" y="619.5" width="20" height="80" as="geometry"/>
                </mxCell>
                <mxCell id="58" value="&lt;span style=&quot;font-size: 12px;&quot;&gt;Spatial Hash&lt;/span&gt;" style="rounded=0;whiteSpace=wrap;html=1;strokeColor=#FFFFFF;fontSize=16;fillColor=#808080;" parent="1" vertex="1">
                    <mxGeometry x="50" y="650" width="90" height="41" as="geometry"/>
                </mxCell>
                <mxCell id="59" value="&lt;span style=&quot;font-size: 12px;&quot;&gt;Rtree&lt;/span&gt;" style="rounded=0;whiteSpace=wrap;html=1;strokeColor=#FFFFFF;fontSize=16;fillColor=#808080;" parent="1" vertex="1">
                    <mxGeometry x="161" y="650" width="89" height="41" as="geometry"/>
                </mxCell>
                <mxCell id="60" value="&lt;span style=&quot;font-size: 12px;&quot;&gt;Coord Trans&lt;/span&gt;" style="rounded=0;whiteSpace=wrap;html=1;strokeColor=#FFFFFF;fontSize=16;fillColor=#808080;" parent="1" vertex="1">
                    <mxGeometry x="270" y="650" width="90" height="41" as="geometry"/>
                </mxCell>
                <mxCell id="61" value="&lt;span style=&quot;font-size: 12px;&quot;&gt;Util&lt;/span&gt;" style="rounded=0;whiteSpace=wrap;html=1;strokeColor=#FFFFFF;fontSize=16;fillColor=#808080;" parent="1" vertex="1">
                    <mxGeometry x="382" y="650" width="88" height="41" as="geometry"/>
                </mxCell>
                <mxCell id="62" value="&lt;span style=&quot;font-size: 12px;&quot;&gt;Math&lt;/span&gt;" style="rounded=0;whiteSpace=wrap;html=1;strokeColor=#FFFFFF;fontSize=16;fillColor=#808080;" parent="1" vertex="1">
                    <mxGeometry x="492" y="650" width="88" height="41" as="geometry"/>
                </mxCell>
                <mxCell id="63" value="&lt;span style=&quot;font-size: 12px;&quot;&gt;Map Block&lt;/span&gt;" style="rounded=0;whiteSpace=wrap;html=1;strokeColor=#FFFFFF;fontSize=16;fillColor=#808080;" parent="1" vertex="1">
                    <mxGeometry x="600" y="650" width="88" height="41" as="geometry"/>
                </mxCell>
                <mxCell id="65" value="&lt;span style=&quot;font-size: 12px;&quot;&gt;Data Parse&lt;/span&gt;" style="rounded=0;whiteSpace=wrap;html=1;strokeColor=#FFFFFF;fontSize=16;fillColor=#808080;" parent="1" vertex="1">
                    <mxGeometry x="396" y="440" width="84" height="41" as="geometry"/>
                </mxCell>
                <mxCell id="66" value="&lt;span style=&quot;font-size: 12px;&quot;&gt;Data Transfer&lt;/span&gt;" style="rounded=0;whiteSpace=wrap;html=1;strokeColor=#FFFFFF;fontSize=16;fillColor=#808080;" parent="1" vertex="1">
                    <mxGeometry x="592" y="440" width="94" height="41" as="geometry"/>
                </mxCell>
                <mxCell id="67" value="&lt;span style=&quot;font-size: 12px;&quot;&gt;DB Access&lt;/span&gt;" style="rounded=0;whiteSpace=wrap;html=1;strokeColor=#FFFFFF;fontSize=16;fillColor=#808080;" parent="1" vertex="1">
                    <mxGeometry x="48" y="440" width="124" height="41" as="geometry"/>
                </mxCell>
                <mxCell id="68" value="&lt;span style=&quot;font-size: 12px;&quot;&gt;Data Output&lt;/span&gt;" style="rounded=0;whiteSpace=wrap;html=1;strokeColor=#FFFFFF;fontSize=16;fillColor=#808080;" parent="1" vertex="1">
                    <mxGeometry x="499" y="440" width="84" height="41" as="geometry"/>
                </mxCell>
                <mxCell id="69" value="&lt;span style=&quot;font-size: 12px;&quot;&gt;MBR Intersects&lt;/span&gt;" style="rounded=0;whiteSpace=wrap;html=1;strokeColor=#FFFFFF;fontSize=16;fillColor=#808080;" parent="1" vertex="1">
                    <mxGeometry x="212" y="440" width="124" height="41" as="geometry"/>
                </mxCell>
            </root>
        </mxGraphModel>
    </diagram>
</mxfile>